<svg width="191" height="24" viewBox="0 0 191 24" fill="none" xmlns="http://www.w3.org/2000/svg">
<g id="logo">
<path id="Click" d="M5.43455 21.9579L5.43454 21.9579L5.43876 21.9606C7.04831 22.9935 8.94673 23.5 11.1129 23.5C12.7531 23.5 14.2459 23.2078 15.5825 22.6132L15.5825 22.6132L15.589 22.6102C16.9126 21.9987 18.0437 21.1687 18.9763 20.1199L18.9764 20.1199L18.9799 20.1159C19.908 19.0494 20.604 17.8351 21.0669 16.477L21.2924 15.8156H20.5937H18.0971H17.7583L17.6327 16.1303C17.1416 17.3607 16.3713 18.3296 15.318 19.0505C14.2824 19.7594 12.9549 20.1313 11.3025 20.1313C9.69564 20.1313 8.35035 19.7716 7.24401 19.0754C6.14456 18.3486 5.31146 17.3829 4.73974 16.169C4.16264 14.922 3.8702 13.535 3.8702 12C3.8702 10.4415 4.16331 9.05551 4.73907 7.83242C5.311 6.61744 6.14415 5.66281 7.24295 4.95768L7.24296 4.95768L7.24496 4.95639C8.35136 4.23891 9.6961 3.86873 11.3025 3.86873C12.9549 3.86873 14.2824 4.24057 15.318 4.94947C16.3713 5.67042 17.1416 6.63929 17.6327 7.86972L17.7583 8.18437H18.0971H20.5937H21.2887L21.0677 7.52542C20.6048 6.14484 19.9081 4.92789 18.9763 3.88013C18.0431 2.83065 16.9109 2.01083 15.5857 1.42073C14.2484 0.803434 12.7543 0.5 11.1129 0.5C8.94556 0.5 7.04629 1.01791 5.43665 2.07318C3.84184 3.09713 2.61271 4.48631 1.75249 6.23013L1.75247 6.23012L1.75025 6.23472C0.914023 7.97454 0.5 9.8992 0.5 12C0.5 14.1008 0.914023 16.0255 1.75025 17.7653L1.75023 17.7653L1.75249 17.7699C2.61263 19.5135 3.84121 20.9127 5.43455 21.9579ZM25.2269 22.7404V23.2404H25.7269H39.5057H40.0057V22.7404V20.4041V19.9041H39.5057H28.5971V1.25959V0.759586H28.0971H25.7269H25.2269V1.25959V22.7404ZM43.6577 22.7404V23.2404H44.1577H46.5279H47.0279V22.7404V1.25959V0.759586H46.5279H44.1577H43.6577V1.25959V22.7404ZM52.6602 17.7653L52.6625 17.7699C53.5226 19.5135 54.7512 20.9127 56.3445 21.9579L56.3487 21.9606C57.9583 22.9935 59.8567 23.5 62.0229 23.5C63.6631 23.5 65.1559 23.2078 66.4925 22.6132L66.4989 22.6102C67.8225 21.9987 68.9537 21.1687 69.8864 20.1199L69.8899 20.1159C70.818 19.0494 71.5139 17.8351 71.9769 16.477L72.2024 15.8156H71.5037H69.007H68.6683L68.5427 16.1303C68.0515 17.3607 67.2812 18.3296 66.228 19.0505C65.1924 19.7594 63.8649 20.1313 62.2125 20.1313C60.6057 20.1313 59.2604 19.7716 58.154 19.0754C57.0545 18.3486 56.2214 17.3828 55.6497 16.1689C55.0726 14.9219 54.7802 13.535 54.7802 12C54.7802 10.4415 55.0733 9.05551 55.6491 7.83242C56.221 6.61744 57.0541 5.66281 58.1529 4.95768L58.1549 4.95639C59.2613 4.23891 60.6061 3.86873 62.2125 3.86873C63.8649 3.86873 65.1924 4.24057 66.228 4.94947C67.2812 5.67042 68.0515 6.63929 68.5427 7.86972L68.6683 8.18437H69.007H71.5037H72.1987L71.9777 7.52542C71.5148 6.14484 70.818 4.92789 69.8863 3.88013L69.5127 4.21239L69.8863 3.88013C68.9531 2.83063 67.8208 2.01081 66.4957 1.4207C65.1583 0.803426 63.6643 0.5 62.0229 0.5C59.8556 0.5 57.9564 1.01789 56.3467 2.07312C54.7519 3.09708 53.5227 4.48628 52.6625 6.23012L52.6602 6.23473C51.824 7.97454 51.41 9.8992 51.41 12C51.41 14.1008 51.824 16.0255 52.6602 17.7653ZM76.1369 22.7404V23.2404H76.6369H79.0071H79.5071V22.7404V15.9123L83.2704 12.3022L91.1181 23.0355L91.2679 23.2404H91.5218H94.4924H95.4788L94.8957 22.4448L85.7357 9.94681L94.3346 1.61875L95.2217 0.759586H93.9868H90.6369H90.4353L90.2901 0.899358L79.5071 11.279V1.25959V0.759586H79.0071H76.6369H76.1369V1.25959V22.7404Z" fill="#FFFFFF" stroke="#FFFFFF"/>
<path id="Shop" d="M105.714 22.6115L105.714 22.6116L105.72 22.6144C107.091 23.2144 108.842 23.5 110.946 23.5C113.579 23.5 115.717 22.9578 117.305 21.816L117.305 21.8161L117.309 21.8132C118.925 20.6282 119.726 18.9355 119.726 16.8024C119.726 15.6404 119.442 14.6408 118.836 13.8428C118.28 13.0821 117.533 12.4731 116.612 12.0106C115.735 11.5388 114.766 11.1594 113.706 10.8703C112.686 10.565 111.656 10.2925 110.615 10.0526C109.598 9.81809 108.667 9.56308 107.821 9.28798C107.025 9.00109 106.4 8.66148 105.931 8.27864C105.542 7.92562 105.346 7.4817 105.346 6.9056C105.346 6.59845 105.399 6.26263 105.51 5.89582C105.628 5.57369 105.842 5.25034 106.174 4.92827L106.175 4.92773C106.503 4.60861 106.995 4.32711 107.686 4.10416C108.355 3.88826 109.256 3.77139 110.408 3.77139C112.275 3.77139 113.561 4.14266 114.358 4.79433L114.358 4.79437L114.364 4.79877C115.197 5.45988 115.649 6.25264 115.758 7.19078L115.81 7.63274H116.255H118.688H119.218L119.187 7.10357C119.119 5.93329 118.753 4.84425 118.097 3.84379C117.447 2.82063 116.472 2.01856 115.206 1.42486C113.916 0.798459 112.309 0.5 110.408 0.5C107.737 0.5 105.632 1.06252 104.179 2.27035L104.179 2.27034L104.176 2.27288C102.754 3.47381 102.039 5.04281 102.039 6.93805C102.039 8.0786 102.312 9.06495 102.894 9.8613L102.899 9.86835L102.905 9.87521C103.48 10.6085 104.224 11.2042 105.124 11.666L105.124 11.6661L105.128 11.6683C106.023 12.1165 106.991 12.4846 108.031 12.7738L108.033 12.7745C109.068 13.0563 110.092 13.3273 111.106 13.5875L111.106 13.5876L111.116 13.59C112.111 13.8242 113.02 14.0895 113.842 14.385L113.846 14.3863C114.663 14.673 115.281 15.0314 115.723 15.4467L115.73 15.4541L115.739 15.4612C116.145 15.8114 116.355 16.2735 116.355 16.8997C116.355 17.9872 115.923 18.7756 115.044 19.3298C114.118 19.8912 112.82 20.1962 111.104 20.1962C109.945 20.1962 108.889 20.0502 107.93 19.7633C107.008 19.4811 106.287 19.056 105.745 18.5008C105.229 17.9512 104.929 17.2257 104.871 16.2853L104.843 15.8156H104.372H101.907H101.364L101.409 16.3568C101.52 17.7065 101.912 18.9304 102.589 20.0191L102.589 20.0192L102.593 20.0254C103.306 21.1359 104.356 21.9945 105.714 22.6115ZM123.979 22.7404V23.2404H124.479H126.849H127.349V22.7404V13.6681H138.516V22.7404V23.2404H139.016H141.386H141.886V22.7404V1.25959V0.759586H141.386H139.016H138.516V1.25959V10.2994H127.349V1.25959V0.759586H126.849H124.479H123.979V1.25959V22.7404ZM149.305 20.1245L149.309 20.1286C150.305 21.1971 151.49 22.0264 152.858 22.6156C154.234 23.2078 155.745 23.5 157.386 23.5C159.026 23.5 160.538 23.2078 161.913 22.6156C163.281 22.0264 164.457 21.1966 165.433 20.1265C166.425 19.0625 167.185 17.8398 167.713 16.4621L167.714 16.4596C168.242 15.0589 168.504 13.5711 168.504 12C168.504 10.4083 168.242 8.91936 167.713 7.53791C167.185 6.16021 166.425 4.93749 165.433 3.87345C164.457 2.80342 163.281 1.97362 161.913 1.38442C160.538 0.792246 159.026 0.5 157.386 0.5C155.745 0.5 154.234 0.792246 152.858 1.38442C151.49 1.97358 150.305 2.80288 149.309 3.87139L149.309 3.87137L149.305 3.87551C148.335 4.9396 147.586 6.16167 147.059 7.5379C146.529 8.91936 146.267 10.4083 146.267 12C146.267 13.5711 146.53 15.0589 147.058 16.4596L147.059 16.4621C147.586 17.8383 148.335 19.0604 149.305 20.1245L149.305 20.1245ZM164.178 16.153L164.176 16.1558C163.565 17.3709 162.68 18.3406 161.514 19.0712C160.385 19.7704 159.016 20.1313 157.386 20.1313C155.779 20.1313 154.408 19.7714 153.256 19.0702C152.091 18.3397 151.195 17.37 150.563 16.1545C149.948 14.9108 149.637 13.5289 149.637 12C149.637 10.4476 149.949 9.06679 150.562 7.84706C151.195 6.63113 152.089 5.6727 153.253 4.9639L153.253 4.96393L153.258 4.96059C154.411 4.23876 155.78 3.86873 157.386 3.86873C159.014 3.86873 160.382 4.23945 161.51 4.95852L161.51 4.95861L161.518 4.9639C162.682 5.67246 163.565 6.62998 164.176 7.84422L164.176 7.84424L164.179 7.84995C164.812 9.06918 165.134 10.4489 165.134 12C165.134 13.5282 164.813 14.9095 164.178 16.153ZM172.877 22.7404V23.2404H173.377H175.747H176.247V22.7404V15.5826H182.794C185.122 15.5826 187.018 14.9374 188.418 13.5938L188.421 13.5908C189.82 12.2252 190.5 10.3995 190.5 8.17109C190.5 5.94368 189.821 4.12713 188.42 2.78216C187.02 1.41644 185.124 0.759586 182.794 0.759586H173.377H172.877V1.25959V22.7404ZM182.636 12.3112H176.247V4.06342H182.636C184.201 4.06342 185.299 4.45439 186.016 5.15438C186.743 5.86283 187.13 6.84742 187.13 8.17109C187.13 9.51888 186.741 10.5132 186.016 11.2202C185.299 11.9202 184.201 12.3112 182.636 12.3112Z" fill="#FFFFFF" stroke="#FFFFFFC"/>
</g>
</svg>
