<svg width="161" height="162" viewBox="0 0 161 162" fill="none" xmlns="http://www.w3.org/2000/svg">
<path id="thank-you 1 (Traced)" fill-rule="evenodd" clip-rule="evenodd" d="M24.1027 0.39787C12.2785 2.96915 3.54232 11.3783 0.600205 23.0208C0.0233151 25.303 0 27.2166 0 72.097C0 116.946 0.0236301 118.887 0.597055 121.015C3.02749 130.036 8.71511 137.087 16.6986 140.975C22.8311 143.961 25.656 144.28 46.0022 144.284L60.8126 144.287L69.1597 152.698C73.7506 157.324 77.8897 161.314 78.3575 161.563C79.4489 162.146 81.5511 162.146 82.6425 161.563C83.1103 161.314 87.2494 157.324 91.8403 152.698L100.187 144.287L114.998 144.284C135.344 144.28 138.169 143.961 144.301 140.975C152.285 137.087 157.973 130.036 160.403 121.015C160.976 118.887 161 116.946 161 72.097C161 27.2166 160.977 25.303 160.4 23.0208C159.003 17.4954 156.361 12.8164 152.342 8.75223C148.534 4.9018 144.283 2.41728 138.63 0.737604C136.44 0.0869479 136.027 0.081882 81.2877 0.0172913C34.908 -0.0371675 25.8255 0.0233072 24.1027 0.39787ZM136.194 10.1007C142.485 12.0619 147.102 16.0016 149.666 21.596C151.653 25.9324 151.548 23.1104 151.548 72.097C151.548 122.473 151.738 118.409 149.152 123.412C146.742 128.075 142.47 131.726 137.438 133.425L134.849 134.298L115.63 134.479C105.06 134.578 96.3467 134.689 96.2679 134.724C96.1891 134.759 92.6093 138.311 88.3124 142.616L80.5 150.444L72.6876 142.616C68.3907 138.311 64.8108 134.759 64.7321 134.724C64.6533 134.689 55.9404 134.578 45.3699 134.479L26.1507 134.298L23.5624 133.425C18.5298 131.726 14.2578 128.075 11.8482 123.412C9.26238 118.409 9.45205 122.473 9.45205 72.097C9.45205 23.1104 9.34682 25.9324 11.3343 21.596C14.2833 15.161 20.2725 10.6532 27.0959 9.73312C28.1356 9.59317 52.7346 9.50199 81.7603 9.5308C129.617 9.57861 134.689 9.63149 136.194 10.1007ZM26.3712 43.0312C26.1582 43.2452 25.9932 44.2714 25.9932 45.3834C25.9932 48.1041 26.2959 48.3504 29.6388 48.3504H32.2945V56.6776C32.2945 62.732 32.3979 65.1085 32.6726 65.3846C33.1745 65.889 37.4008 65.889 37.9027 65.3846C38.1775 65.1085 38.2808 62.732 38.2808 56.6776V48.3504H40.9365C44.2794 48.3504 44.5822 48.1041 44.5822 45.3834C44.5822 44.2714 44.4171 43.2452 44.2041 43.0312C43.665 42.4895 26.9103 42.4895 26.3712 43.0312ZM46.0526 42.8624C45.937 42.9783 45.8425 48.0078 45.8425 54.0392C45.8425 62.1456 45.9411 65.1038 46.2205 65.3846C46.4452 65.6104 47.5274 65.7646 48.8876 65.7646C50.8281 65.7646 51.226 65.6715 51.5027 65.1522C51.6819 64.8153 51.8288 62.8919 51.8288 60.8778V57.2158H55.6096H59.3904V61.1102C59.3904 63.717 59.5155 65.1304 59.7685 65.3846C60.3126 65.9314 64.5673 65.8884 65.0273 65.3314C65.2828 65.0221 65.3613 61.7413 65.302 53.8539L65.2192 42.8096L62.7475 42.7165C61.1964 42.6582 60.111 42.7611 59.8331 42.9929C59.4947 43.275 59.3904 44.3236 59.3904 47.4392V51.5166H55.6096H51.8288V47.4639C51.8288 44.734 51.7053 43.287 51.4507 43.0312C51.0509 42.6294 46.4282 42.4847 46.0526 42.8624ZM75.1838 43.0777C74.9901 43.3124 72.7688 48.1924 70.248 53.922C64.7964 66.3136 64.8493 65.8421 68.9203 65.6981L71.5205 65.6063L72.5993 63.3108L73.6781 61.0153L77.9555 61.0219L82.2329 61.0286L83.3356 63.3174L84.4384 65.6063L86.4765 65.7022C89.2595 65.8336 89.952 65.6237 89.952 64.6501C89.952 63.9177 81.4181 43.919 80.7335 43.047C80.2908 42.4831 75.6536 42.5088 75.1838 43.0777ZM90.5812 43.2864C90.3541 43.7126 90.2728 47.4116 90.3339 54.5381C90.4111 63.5625 90.4955 65.2 90.8973 65.4549C91.5104 65.844 95.3249 65.8444 95.9384 65.4552C96.3246 65.2102 96.4289 64.0824 96.5093 59.2792L96.6076 53.4031L101.206 59.3464C103.734 62.6151 105.959 65.3944 106.148 65.5224C106.785 65.9514 110.957 65.7981 111.342 65.3314C111.598 65.0221 111.676 61.7413 111.617 53.8539L111.534 42.8096L109.02 42.7158C106.926 42.6376 106.439 42.7139 106.106 43.1721C105.816 43.5698 105.705 45.3387 105.705 49.5552V55.3883L100.78 49.0198L95.8542 42.6512H93.3869C91.2394 42.6512 90.8755 42.7336 90.5812 43.2864ZM115.157 43.2864C114.929 43.7126 114.848 47.4116 114.909 54.5381C114.986 63.5625 115.071 65.2 115.473 65.4549C116.086 65.844 119.9 65.8444 120.514 65.4549C120.869 65.2298 121.013 64.3733 121.094 62.0053C121.19 59.1994 121.281 58.7802 121.929 58.1679L122.657 57.4805L125.098 60.7518C128.989 65.9672 128.727 65.7646 131.578 65.7646C133.375 65.7646 134.147 65.6335 134.512 65.2672C135.31 64.4645 135.438 64.7004 130.638 58.0872C128.669 55.3731 127.092 53.0339 127.135 52.8885C127.177 52.7435 128.901 50.7814 130.967 48.5284C134 45.2197 134.704 44.2761 134.628 43.6207C134.536 42.8216 134.49 42.808 131.541 42.7117L128.548 42.6136L124.858 46.5112L121.167 50.4085L121.155 47.1422C121.14 42.7181 121.092 42.6512 117.993 42.6512C115.815 42.6512 115.451 42.7326 115.157 43.2864ZM78.5626 52.704C78.8906 53.3572 79.2574 54.2117 79.378 54.6037C79.5869 55.2828 79.5163 55.3161 77.8667 55.3161H76.1363L76.952 53.4164C77.4004 52.3715 77.8125 51.5166 77.867 51.5166C77.9218 51.5166 78.235 52.0511 78.5626 52.704ZM74.5137 77.9317C72.4412 78.5095 71.1425 79.265 69.3916 80.9108C64.6139 85.4017 64.5389 93.126 69.2272 97.8421C74.9085 103.557 85.094 101.966 88.6253 94.8114C90.235 91.5502 90.2041 87.1235 88.5487 83.8411C87.7286 82.2143 85.2752 79.7488 83.6214 78.8888C81.0073 77.5299 77.3373 77.1439 74.5137 77.9317ZM46.5076 78.6802C46.1207 79.4071 46.0397 79.2485 50.5143 86.5403L54.0342 92.2765V96.3714C54.0342 99.1342 54.1571 100.59 54.4123 100.846C54.9142 101.351 59.1406 101.351 59.6425 100.846C59.8983 100.589 60.0205 99.1165 60.0205 96.2925V92.1185L63.8225 85.9007C66.3188 81.8179 67.5901 79.4404 67.5245 78.9769C67.431 78.3167 67.247 78.2651 64.665 78.1796L61.905 78.0881L60.4115 80.4498C59.5898 81.7486 58.478 83.5549 57.9402 84.4636L56.9625 86.1157L54.6127 82.1934L52.2632 78.2711L49.5429 78.1799C47.1544 78.0998 46.7842 78.1609 46.5076 78.6802ZM91.6541 78.5542C91.5614 78.797 91.5305 82.3945 91.5854 86.5488C91.6789 93.645 91.7287 94.1981 92.4093 95.6852C93.2609 97.5463 95.0035 99.4568 96.6091 100.29C99.1848 101.627 103.715 101.628 106.287 100.294C107.9 99.4572 109.642 97.5492 110.495 95.6852C111.172 94.205 111.226 93.6301 111.32 86.8493C111.375 82.8605 111.337 79.2628 111.235 78.8546C111.06 78.1562 110.907 78.1128 108.598 78.1128C107.111 78.1128 105.998 78.2622 105.768 78.4927C105.501 78.7619 105.388 80.6793 105.383 85.0626C105.375 91.9738 105.171 93.3587 103.987 94.5476C103.31 95.2284 102.88 95.3686 101.47 95.3686C99.4684 95.3686 98.3385 94.5407 97.83 92.7008C97.658 92.0783 97.5165 88.7126 97.5156 85.2209C97.5143 80.7075 97.4044 78.7628 97.1356 78.4927C96.5735 77.9279 91.873 77.9804 91.6541 78.5542ZM80.3595 83.9649C82.4928 85.0411 83.4339 86.5124 83.5927 89.0207C83.7439 91.4055 83.0007 93.1273 81.2363 94.4796C80.2123 95.2645 79.8097 95.3686 77.797 95.3686C75.7251 95.3686 75.4069 95.28 74.3067 94.3963C72.686 93.0947 71.9941 91.6398 71.9938 89.532C71.9922 84.6915 76.2211 81.8774 80.3595 83.9649Z" fill="#EAEAEA"/>
</svg>
