<svg width="32" height="32" viewBox="0 0 32 32" fill="none" xmlns="http://www.w3.org/2000/svg">
<g id="fluent-emoji-high-contrast:cross-mark-button">
<g id="Group">
<path id="Vector" d="M26.406 5.59455C26.2174 5.40584 25.9935 5.25614 25.747 5.154C25.5005 5.05187 25.2364 4.9993 24.9696 4.9993C24.7028 4.9993 24.4386 5.05187 24.1921 5.154C23.9457 5.25614 23.7218 5.40584 23.5332 5.59455L16.0005 13.1299L8.4678 5.5959C8.08684 5.21494 7.57015 5.00092 7.03139 5.00092C6.49263 5.00092 5.97594 5.21494 5.59498 5.5959C5.21402 5.97686 5 6.49355 5 7.03231C5 7.57107 5.21402 8.08776 5.59498 8.46872L13.1304 16L5.59633 23.5327C5.4077 23.7214 5.25807 23.9453 5.15598 24.1918C5.0539 24.4382 5.00135 24.7024 5.00135 24.9691C5.00135 25.5079 5.21537 26.0246 5.59633 26.4056C5.97729 26.7865 6.49399 27.0005 7.03274 27.0005C7.5715 27.0005 8.08819 26.7865 8.46915 26.4056L16.0005 18.8702L23.5332 26.4042C23.9141 26.7852 24.4308 26.9992 24.9696 26.9992C25.5083 26.9992 26.025 26.7852 26.406 26.4042C26.7869 26.0232 27.001 25.5065 27.001 24.9678C27.001 24.429 26.7869 23.9123 26.406 23.5314L18.8706 16L26.4046 8.46736C26.5933 8.27878 26.743 8.05485 26.8452 7.80839C26.9473 7.56192 26.9999 7.29775 26.9999 7.03096C26.9999 6.76417 26.9473 6.49999 26.8452 6.25353C26.743 6.00706 26.5933 5.78314 26.4046 5.59455H26.406Z" fill="#EAEAEA"/>
</g>
</g>
</svg>
